<?xml version="1.0" encoding="utf-8"?>
<!-- Generator: Adobe Illustrator 27.5.0, SVG Export Plug-In . SVG Version: 6.00 Build 0)  -->
<svg version="1.1" xmlns="http://www.w3.org/2000/svg" xmlns:xlink="http://www.w3.org/1999/xlink" x="0px" y="0px"
	 viewBox="0 0 820 312" style="enable-background:new 0 0 820 312;" xml:space="preserve">
<g id="BACKGROUND">
	<rect style="fill:#2A2A2A;" width="820" height="312"/>
</g>
<g id="OBJECTS">
	<g>
		<defs>
			<rect id="SVGID_1_" width="820" height="312"/>
		</defs>
		<clipPath id="SVGID_00000116921304260705527340000001424419466318558122_">
			<use xlink:href="#SVGID_1_"  style="overflow:visible;"/>
		</clipPath>
		<g style="clip-path:url(#SVGID_00000116921304260705527340000001424419466318558122_);">
			<path style="fill:#FFFFFF;" d="M655.773,49.759c-7.01,0-12.713-5.703-12.713-12.712c0-7.01,5.703-12.712,12.713-12.712
				c7.01,0,12.712,5.703,12.712,12.712C668.485,44.056,662.782,49.759,655.773,49.759z M655.773,27.253
				c-5.401,0-9.795,4.394-9.795,9.795c0,5.401,4.394,9.794,9.795,9.794c5.401,0,9.795-4.393,9.795-9.794
				C665.568,31.647,661.173,27.253,655.773,27.253z"/>
		</g>
		<polygon style="clip-path:url(#SVGID_00000116921304260705527340000001424419466318558122_);fill:#FFFFFF;" points="
			686.014,261.872 686.014,253.016 683.096,253.016 683.096,261.872 674.239,261.872 674.239,264.79 683.096,264.79 
			683.096,273.647 686.014,273.647 686.014,264.79 694.87,264.79 694.87,261.872 		"/>
		<polygon style="clip-path:url(#SVGID_00000116921304260705527340000001424419466318558122_);fill:#FFFFFF;" points="
			411.459,99.252 411.459,90.395 408.541,90.395 408.541,99.252 399.684,99.252 399.684,102.169 408.541,102.169 408.541,111.026 
			411.459,111.026 411.459,102.169 420.316,102.169 420.316,99.252 		"/>
		
			<circle style="clip-path:url(#SVGID_00000116921304260705527340000001424419466318558122_);fill:#687DBB;" cx="749.959" cy="214.662" r="42.154"/>
		<path style="clip-path:url(#SVGID_00000116921304260705527340000001424419466318558122_);fill:#DE9E27;" d="M58.115,43.061
			c0-17.075-7.365-32.429-19.09-43.061H0v101.176C32.096,101.176,58.115,75.157,58.115,43.061z"/>
		<path style="clip-path:url(#SVGID_00000116921304260705527340000001424419466318558122_);fill:#91469B;" d="M418.493,214.662
			c-51.219,0-92.74,41.521-92.74,92.74c0,1.542,0.04,3.074,0.114,4.598h185.251c0.074-1.523,0.114-3.056,0.114-4.598
			C511.233,256.183,469.712,214.662,418.493,214.662z"/>
		<g style="clip-path:url(#SVGID_00000116921304260705527340000001424419466318558122_);">
			<path style="fill-rule:evenodd;clip-rule:evenodd;fill:#687DBB;" d="M380.113,149.466l-45.875-31.199
				c-0.54-0.367-1.198-0.499-1.839-0.377c-0.641,0.122-1.204,0.486-1.571,1.026l-18.416,27.079c-0.367,0.54-0.499,1.198-0.377,1.839
				c0.122,0.64,0.487,1.204,1.026,1.571l45.875,31.199c0.54,0.367,1.198,0.499,1.839,0.377c0.64-0.122,1.204-0.486,1.571-1.027
				l18.415-27.079c0.367-0.54,0.499-1.198,0.377-1.839C381.018,150.397,380.653,149.833,380.113,149.466z"/>
			<polygon style="fill:#FFFFFF;" points="378.463,156.258 374.494,162.093 373.919,162.94 373.139,162.409 324.764,129.511 
				323.984,128.98 324.559,128.134 328.528,122.299 329.103,121.452 329.883,121.983 378.258,154.881 379.038,155.412 			"/>
			<path style="fill:#91469B;" d="M324.588,139.353c1.544-0.294,3.2,0.001,4.602,0.954c1.402,0.954,2.285,2.385,2.579,3.929
				c0.294,1.544-0.001,3.2-0.955,4.602c-0.954,1.402-2.385,2.285-3.929,2.579c-1.544,0.294-3.2-0.001-4.602-0.954
				c-1.402-0.954-2.285-2.385-2.579-3.93c-0.294-1.544,0.001-3.2,0.954-4.602C321.612,140.53,323.044,139.647,324.588,139.353z"/>
			<path style="fill:#DE9E27;" d="M325.301,143.094c0.586-0.112,1.215,0,1.748,0.363c0.533,0.362,0.868,0.906,0.98,1.493
				c0.112,0.586,0,1.215-0.363,1.748c-0.362,0.533-0.906,0.868-1.492,0.98c-0.587,0.112-1.216,0-1.748-0.363
				c-0.533-0.362-0.868-0.906-0.98-1.493c-0.112-0.586,0-1.215,0.363-1.748C324.17,143.541,324.714,143.206,325.301,143.094z"/>
			<path style="fill:#FFFFFF;" d="M354.145,164.269c0.293,0.2,0.346,0.634,0.12,0.967c-0.225,0.334-0.648,0.441-0.943,0.244
				l-5.422-3.689c-0.135-0.091-0.224-0.238-0.251-0.413c-0.029-0.189,0.018-0.385,0.131-0.552c0.113-0.168,0.279-0.283,0.466-0.326
				c0.05-0.011,0.1-0.016,0.149-0.016c0.119,0,0.232,0.033,0.328,0.098L354.145,164.269z M344.7,157.846l-5.422-3.688
				c-0.099-0.066-0.213-0.099-0.329-0.099c-0.227,0-0.464,0.123-0.613,0.343c-0.227,0.333-0.173,0.768,0.12,0.967l5.422,3.687
				c0.136,0.093,0.305,0.121,0.476,0.082c0.186-0.043,0.352-0.159,0.466-0.326c0.113-0.167,0.16-0.363,0.132-0.553
				C344.925,158.085,344.836,157.938,344.7,157.846L344.7,157.846z M358.167,167.004c-0.099-0.066-0.213-0.099-0.329-0.099
				c-0.227,0-0.464,0.123-0.613,0.343c-0.227,0.333-0.173,0.768,0.12,0.967l5.422,3.687c0.135,0.092,0.304,0.12,0.477,0.082
				c0.186-0.043,0.352-0.158,0.466-0.326c0.227-0.333,0.173-0.767-0.12-0.966L358.167,167.004z"/>
			<g>
				<path style="fill:#FFFFFF;" d="M357.405,157.054l-21.878-14.879c-0.256-0.174-0.323-0.523-0.148-0.779
					c0.174-0.256,0.523-0.323,0.779-0.148l21.878,14.879c0.256,0.174,0.323,0.523,0.148,0.779
					C358.01,157.162,357.661,157.228,357.405,157.054z"/>
			</g>
		</g>
		<g style="clip-path:url(#SVGID_00000116921304260705527340000001424419466318558122_);">
			<path style="fill:#DE9E27;" d="M282.425,276.83v-10.213c6.18,0,11.208-5.028,11.208-11.208c0-6.18-5.028-11.208-11.208-11.208
				v-10.213c11.811,0,21.421,9.609,21.421,21.421C303.845,267.22,294.236,276.83,282.425,276.83z"/>
		</g>
		<path style="clip-path:url(#SVGID_00000116921304260705527340000001424419466318558122_);fill:#91469B;" d="M417.031,43.555
			l-6.509,6.508l-4.754-4.755l6.508-6.508l-6.508-6.508l4.754-4.755l6.509,6.508l6.509-6.508l4.754,4.755l-6.508,6.508l6.508,6.508
			l-4.754,4.755L417.031,43.555z M391.576,50.063l4.754-4.755l-6.508-6.508l6.508-6.508l-4.754-4.755l-6.509,6.508l-6.509-6.508
			l-4.754,4.755l6.508,6.508l-6.508,6.508l4.754,4.755l6.509-6.508L391.576,50.063z M359.611,50.063l4.754-4.755l-6.508-6.508
			l6.508-6.508l-4.754-4.755l-6.509,6.508l-6.509-6.508l-4.754,4.755l6.508,6.508l-6.508,6.508l4.754,4.755l6.509-6.508
			L359.611,50.063z"/>
		<g style="clip-path:url(#SVGID_00000116921304260705527340000001424419466318558122_);">
			<g>
				<path style="fill:#FFFFFF;" d="M175.065,233.988c-4.783,0-8.659,3.877-8.659,8.66l0,0c0,4.782,3.877,8.659,8.659,8.659
					c4.782,0,8.659-3.877,8.659-8.659l0,0C183.724,237.865,179.847,233.988,175.065,233.988z M179.481,240.622
					c0.072,0.706-0.011,1.469-0.211,2.132c-1.047,3.477-5.292,6.343-9.879,3.686c0,0,1.779,0.143,3.45-0.96
					c-1.705-0.149-2.191-1.628-2.191-1.628c0.416,0.081,0.993,0,0.993,0c-1.883-0.589-1.849-2.357-1.849-2.357
					c0.439,0.231,1.063,0.277,1.063,0.277c-1.699-1.432-0.705-3.085-0.705-3.085c1.213,1.722,3.498,2.367,4.748,2.4
					c-0.018-1.121,0.232-2.399,1.814-2.747c1.006-0.221,1.703,0.059,2.149,0.603c0.377-0.06,1.125-0.214,1.537-0.534
					c0,0-0.256,0.855-0.902,1.259c0,0,1.029-0.22,1.237-0.301C180.737,239.368,180.101,240.142,179.481,240.622z"/>
				<g>
					<path style="fill:#FFFFFF;" d="M204.384,233.988L204.384,233.988c-4.783,0-8.659,3.877-8.659,8.659v0
						c0,4.782,3.877,8.659,8.659,8.659h0c4.783,0,8.659-3.877,8.659-8.659v0C213.044,237.865,209.167,233.988,204.384,233.988z
						 M204.402,247.995c-0.953,0-1.88-0.258-2.692-0.747c0,0-1.526,0.575-2.035,0.767c-0.033,0.013-0.226,0.083-0.365,0.103
						c-0.143,0.021-0.175-0.116-0.165-0.195c0.02-0.148,0.079-0.383,0.117-0.523c0.099-0.356,0.561-2.115,0.561-2.115
						c-0.422-0.767-0.644-1.632-0.644-2.512c0-2.879,2.342-5.222,5.222-5.222c2.879,0,5.222,2.342,5.222,5.222
						C209.624,245.653,207.281,247.995,204.402,247.995z"/>
					<path style="fill:#FFFFFF;" d="M204.4,238.808c-2.191,0-3.974,1.783-3.974,3.974c0,0.71,0.19,1.408,0.55,2.017
						c0.05,0.085,0.068,0.186,0.043,0.281l-0.361,1.434c-0.002,0.007,0.005,0.013,0.012,0.011l1.216-0.46
						c0.042-0.016,0.085-0.024,0.129-0.024c0.07,0,0.14,0.02,0.201,0.06c0.756,0.498,1.656,0.723,2.57,0.636
						c1.981-0.189,3.541-1.872,3.587-3.862C208.424,240.642,206.622,238.808,204.4,238.808z M206.759,244.874
						c-0.254,0.295-1.071,0.676-2.36-0.099c-0.707-0.426-1.133-0.842-1.133-0.842s-0.32-0.265-0.819-0.924
						c-0.908-1.199-0.615-2.053-0.349-2.336c0.342-0.364,0.752-0.217,0.979,0.01c0.227,0.227,0.684,1.02,0.453,1.251
						c-0.203,0.202-0.43,0.201-0.411,0.394c0.036,0.357,0.693,0.952,0.693,0.952s0.834,0.755,1.192,0.754
						c0.195-0.001,0.168-0.227,0.348-0.45c0.205-0.254,1.042,0.116,1.292,0.318C206.895,244.104,207.085,244.495,206.759,244.874z"
						/>
				</g>
				<g>
					<path style="fill:#FFFFFF;" d="M112.191,239.565v6.166c0,0.755,0.612,1.367,1.367,1.367h2.135h0.898h3.086
						c0.842,0,1.524-0.682,1.524-1.524v-5.852c0-0.841-0.682-1.524-1.524-1.524h-3.086h-0.898h-2.135
						C112.803,238.198,112.191,238.81,112.191,239.565z M116.591,239.62c1.67,0,3.028,1.358,3.028,3.028
						c0,1.67-1.358,3.029-3.028,3.029c-1.67,0-3.028-1.359-3.028-3.029C113.563,240.978,114.921,239.619,116.591,239.62
						L116.591,239.62z M113.789,239.004c0.054,0,0.102,0.021,0.14,0.054c0.049,0.041,0.083,0.1,0.083,0.169v0.374v0.233
						c0,0.123-0.1,0.223-0.223,0.223h-0.242h-0.364c-0.123,0-0.223-0.1-0.223-0.223v-0.606c0-0.069,0.033-0.128,0.083-0.169
						c0.038-0.032,0.086-0.054,0.14-0.054H113.789z"/>
					<path style="fill:#FFFFFF;" d="M115.056,242.648c0,0.859,0.699,1.558,1.558,1.558c0.859,0,1.558-0.699,1.558-1.558
						c0-0.859-0.699-1.558-1.558-1.558C115.755,241.09,115.056,241.789,115.056,242.648z"/>
					<path style="fill:#FFFFFF;" d="M107.766,242.648L107.766,242.648c0,4.783,3.877,8.66,8.659,8.66h0
						c4.782,0,8.659-3.877,8.659-8.659v0c0-4.782-3.877-8.659-8.659-8.659h0C111.643,233.988,107.766,237.865,107.766,242.648z
						 M120.152,237.021c1.241,0,2.247,1.006,2.247,2.247v6.759c0,1.241-1.006,2.247-2.247,2.247h-7.078
						c-1.241,0-2.247-1.006-2.247-2.247v-6.759c0-1.241,1.006-2.247,2.247-2.247H120.152z"/>
				</g>
				<path style="fill:#FFFFFF;" d="M145.745,233.988c-4.783,0-8.659,3.877-8.659,8.659v0c0,4.782,3.877,8.659,8.659,8.659
					c4.782,0,8.659-3.877,8.659-8.659v0C154.404,237.865,150.527,233.988,145.745,233.988z M148.565,238.711c0,0-0.954,0-1.332,0
					c-0.47,0-0.568,0.191-0.568,0.673c0,0.401,0,1.165,0,1.165h1.9l-0.183,2.046h-1.717v6.112h-2.46v-6.086h-1.28v-2.072h1.28
					c0,0,0-0.298,0-1.632c0-1.531,0.826-2.331,2.656-2.331c0.3,0,1.704,0,1.704,0V238.711z"/>
			</g>
		</g>
		
			<rect x="74.005" y="183.6" style="clip-path:url(#SVGID_00000116921304260705527340000001424419466318558122_);fill:#91469B;" width="172.8" height="31.063"/>
		<g style="clip-path:url(#SVGID_00000116921304260705527340000001424419466318558122_);">
			<g>
				<path style="fill:#FFFFFF;" d="M89.913,52.195c0,2.25-1.824,4.074-4.074,4.074c-2.25,0-4.074-1.824-4.074-4.074
					c0-2.25,1.824-4.074,4.074-4.074C88.088,48.12,89.913,49.944,89.913,52.195z"/>
				<path style="fill:#FFFFFF;" d="M239.045,52.195c0,2.25-1.824,4.074-4.074,4.074c-2.25,0-4.074-1.824-4.074-4.074
					c0-2.25,1.824-4.074,4.074-4.074C237.221,48.12,239.045,49.944,239.045,52.195z"/>
			</g>
		</g>
		<g style="clip-path:url(#SVGID_00000116921304260705527340000001424419466318558122_);">
			<g>
				<g>
					<path style="fill:#687DBB;" d="M602.145,123.616c-1.621,0-2.936-1.315-2.936-2.937v-10.821
						c0-31.659-22.857-57.416-50.954-57.416c-28.097,0-50.956,25.757-50.956,57.416v10.821c0,1.621-1.315,2.937-2.936,2.937
						c-1.621,0-2.936-1.315-2.936-2.937v-10.821c0-34.897,25.493-63.288,56.829-63.288c31.334,0,56.827,28.392,56.827,63.288v10.821
						C605.081,122.3,603.766,123.616,602.145,123.616z"/>
				</g>
				<g style="opacity:0.15;">
					<path d="M602.145,123.616c-1.621,0-2.936-1.315-2.936-2.937v-10.821c0-31.659-22.857-57.416-50.954-57.416
						c-28.097,0-50.956,25.757-50.956,57.416v10.821c0,1.621-1.315,2.937-2.936,2.937c-1.621,0-2.936-1.315-2.936-2.937v-10.821
						c0-34.897,25.493-63.288,56.829-63.288c31.334,0,56.827,28.392,56.827,63.288v10.821
						C605.081,122.3,603.766,123.616,602.145,123.616z"/>
				</g>
			</g>
			<polygon style="fill:#91469B;" points="647.958,104.627 637.33,95.633 643.062,87.61 459.318,87.61 465.469,95.79 
				454.423,104.627 			"/>
			<path style="fill:#DE9E27;" d="M465.469,95.79l-6.151,4.921V87.61L465.469,95.79z M643.062,100.484V87.61l-5.732,8.023
				L643.062,100.484z M647.958,104.627H454.423l-20.527,135.972h234.59L647.958,104.627z"/>
			<path style="fill:#2A2A2A;" d="M504.141,127.951c0,3.779-3.063,6.842-6.842,6.842c-3.779,0-6.842-3.063-6.842-6.842
				c0-3.779,3.063-6.842,6.842-6.842C501.078,121.109,504.141,124.173,504.141,127.951z M605.081,121.109
				c-3.779,0-6.842,3.063-6.842,6.842c0,3.779,3.063,6.842,6.842,6.842c3.779,0,6.842-3.063,6.842-6.842
				C611.923,124.173,608.86,121.109,605.081,121.109z"/>
			<g>
				<path style="fill:#687DBB;" d="M605.081,130.887c-1.621,0-2.937-1.315-2.937-2.936V117.13c0-31.659-22.857-57.416-50.954-57.416
					c-28.097,0-50.956,25.757-50.956,57.416v10.821c0,1.621-1.315,2.936-2.936,2.936c-1.621,0-2.936-1.315-2.936-2.936V117.13
					c0-34.897,25.493-63.288,56.829-63.288c31.333,0,56.827,28.391,56.827,63.288v10.821
					C608.018,129.571,606.702,130.887,605.081,130.887z"/>
			</g>
		</g>
		<g style="clip-path:url(#SVGID_00000116921304260705527340000001424419466318558122_);">
			<path style="fill:#FFFFFF;" d="M763.635,38.779c-5.159-4.396-9.697,0.438-16.387,1.528c-6.967,1.136-10.466,4.255-12.586,8.076
				c-2.998,5.405-10.031,6.015-14.366,10.317c-4.337,4.3-5.005,11.328-10.434,14.282c-3.838,2.088-6.985,5.562-8.178,12.52
				c-1.145,6.681-6.015,11.179-1.662,16.374c25.477,30.402,52.143,22.392,42.074,1.49c0,0,5.615-5.568,11.345-11.249
				c5.728-5.683,11.341-11.253,11.341-11.253C785.602,91.102,793.828,64.502,763.635,38.779z"/>
			<polygon style="fill:#DE9E27;" points="720.793,91.629 720.818,85.349 714.087,85.321 714.061,91.601 707.779,91.576 
				707.752,98.307 714.034,98.332 714.009,104.615 720.74,104.642 720.765,98.36 727.045,98.385 727.072,91.654 			"/>
			<path style="fill:#91469B;" d="M758.744,49.403c-0.009,2.152-1.76,3.889-3.912,3.881c-2.152-0.009-3.889-1.76-3.881-3.912
				c0.009-2.152,1.76-3.889,3.912-3.881C757.015,45.5,758.753,47.251,758.744,49.403z M754.794,62.484
				c-2.152-0.009-3.904,1.729-3.912,3.881c-0.009,2.152,1.729,3.903,3.881,3.912c2.152,0.009,3.904-1.729,3.912-3.881
				C758.683,64.244,756.946,62.492,754.794,62.484z M763.704,54.023c-2.152-0.009-3.904,1.729-3.912,3.881
				c-0.009,2.152,1.729,3.904,3.881,3.912c2.152,0.009,3.903-1.729,3.912-3.881C767.593,55.784,765.856,54.032,763.704,54.023z
				 M745.953,53.951c-2.152-0.009-3.904,1.729-3.912,3.881c-0.009,2.152,1.729,3.903,3.881,3.912
				c2.152,0.009,3.904-1.729,3.912-3.881C749.843,55.711,748.105,53.96,745.953,53.951z"/>
			<g>
				<path style="fill:#687DBB;" d="M741.368,87.119l-4.399,4.364c-0.741,0.735-0.746,1.931-0.011,2.672
					c0.735,0.741,1.931,0.746,2.672,0.011l4.399-4.364c0.741-0.735,0.746-1.931,0.011-2.672
					C743.305,86.39,742.109,86.385,741.368,87.119z"/>
				<path style="fill:#687DBB;" d="M751.48,77.089l-4.399,4.363c-0.741,0.735-0.746,1.931-0.011,2.672
					c0.735,0.741,1.931,0.746,2.672,0.011l4.399-4.363c0.741-0.735,0.746-1.931,0.011-2.672
					C753.417,76.359,752.221,76.354,751.48,77.089z"/>
			</g>
			<path style="fill:#91469B;" d="M733.496,68.845c2.551,2.572,3.763,5.507,2.706,6.556c-1.057,1.048-3.982-0.187-6.533-2.759
				c-2.551-2.572-3.763-5.507-2.706-6.556C728.02,65.038,730.945,66.273,733.496,68.845z"/>
			<path style="fill:#91469B;" d="M733.481,72.658c-2.572,2.551-5.507,3.763-6.556,2.706c-1.048-1.057,0.187-3.982,2.759-6.533
				s5.507-3.763,6.556-2.706C737.288,67.181,736.053,70.106,733.481,72.658z"/>
		</g>
	</g>
</g>
<g id="TEXTS">
	<g>
		
			<text transform="matrix(1 0 0 1 105.5039 279.4375)" style="fill:#FFFFFF; font-family:'OpenSans-SemiBold'; font-size:11.4569px;">WWW.SHOPNOW.COM</text>
		<g>
			<g>
				
					<text transform="matrix(1 0 0 1 39.2515 116.3086)" style="fill:#FFFFFF; font-family:'Staatliches-Regular'; font-size:59.3464px;">Shopping</text>
			</g>
			<g>
				
					<text transform="matrix(1 0 0 1 77.4697 169.3301)" style="fill:#FFFFFF; font-family:'Staatliches-Regular'; font-size:59.3464px;">Center</text>
			</g>
			<g>
				
					<text transform="matrix(1 0 0 1 105.0942 59.0542)" style="fill:#FFFFFF; font-family:'JosefinSans-Regular'; font-size:20.9716px;">Special Offer</text>
			</g>
			<g>
				
					<text transform="matrix(1 0 0 1 95.771 206.5303)" style="fill:#FFFFFF; font-family:'JosefinSans-Bold'; font-size:20.9716px;">Shop with us</text>
			</g>
		</g>
		<g>
			<g>
				
					<text transform="matrix(1 0 0 1 469.5195 177.2793)" style="fill:#FFFFFF; font-family:'Staatliches-Regular'; font-size:40.0064px;">Shopping</text>
			</g>
			<g>
				
					<text transform="matrix(1 0 0 1 493.4385 218.1035)" style="fill:#FFFFFF; font-family:'Staatliches-Regular'; font-size:48.3297px;">mALL</text>
			</g>
		</g>
	</g>
</g>
</svg>
